#!OML:ASF H:\Terrain\Patient Classification 1\Takeo\Monday\TakeoMonday.ASF
:FULLY-SPECIFIED
:DEGREES
978
root 9.38437 17.8462 0.88472 -9.1732 38.586 -8.54241
lowerback 8.56783 2.10111 3.18798
upperback 0.0946023 2.90773 -5.43632
thorax -4.2686 1.3446 -7.89382
lowerneck -11.8839 -11.4126 -4.94699
upperneck -16.974 -13.6557 7.05485
head -2.68536 -6.43737 2.85353
rclavicle 4.57205e-015 6.36111e-015
rhumerus 66.9913 -17.5896 -27.0105
rradius 53.3778
rwrist -15.2177
rhand -40.4 41.633
rfingers 7.12502
rthumb -13.3534 12.0809
lclavicle 4.57205e-015 6.36111e-015
lhumerus -40.6193 11.5868 73.9587
lradius 38.1484
lwrist 30.9988
lhand -30.4726 15.1711
lfingers 7.12502
lthumb -3.77382 45.1174
rfemur 4.4582 -11.1644 23.1114
rtibia 10.1636
rfoot -12.1928 -27.7818
rtoes 10.0854
lfemur 0.786789 -9.93046 -14.1682
ltibia 23.9846
lfoot -16.4417 9.12823
ltoes -5.84081
979
root 9.39515 17.8467 0.873728 -9.11294 38.1441 -8.47899
lowerback 8.54386 2.00403 3.1018
upperback 0.0906518 2.77353 -5.25955
thorax -4.29295 1.27861 -7.63602
lowerneck -12.6161 -11.5781 -5.16497
upperneck -15.8832 -13.8651 7.02527
head -2.16569 -6.53545 2.76107
rclavicle 1.34677e-014 7.31528e-014
rhumerus 66.6034 -16.7592 -27.1725
rradius 55.1304
rwrist -15.0516
rhand -40.9033 41.6506
rfingers 7.12502
rthumb -13.8384 12.131
lclavicle 1.34677e-014 7.31528e-014
lhumerus -40.8214 11.8806 73.9978
lradius 38.1646
lwrist 31.0718
lhand -30.6328 14.9405
lfingers 7.12502
lthumb -3.92852 44.884
rfemur 4.27468 -10.888 23.0866
rtibia 10.4487
rfoot -12.1872 -27.6083
rtoes 10.5089
lfemur 0.913313 -9.69186 -14.239
ltibia 23.8959
lfoot -16.4271 9.37863
ltoes -5.48724
980
root 9.40159 17.8433 0.867079 -9.19687 37.7758 -8.60686
lowerback 8.49851 1.94253 3.23269
upperback 0.140241 2.70601 -5.21696
thorax -4.22171 1.24593 -7.65355
lowerneck -12.1101 -11.1502 -4.78744
upperneck -16.2388 -13.3646 6.97128
head -2.42521 -6.31658 2.76037
rclavicle 4.34841e-014 6.36111e-015
rhumerus 65.786 -16.1775 -27.4118
rradius 56.9632
rwrist -14.9673
rhand -41.1486 41.6866
rfingers 7.12502
rthumb -14.0748 12.1833
lclavicle 4.34841e-014 6.36111e-015
lhumerus -40.8402 11.3412 74.0833
lradius 38.2141
lwrist 31.6526
lhand -31.1573 15.0692
lfingers 7.12502
lthumb -4.43508 45.0028
rfemur 4.0867 -10.639 23.245
rtibia 10.8647
rfoot -12.3236 -27.4584
rtoes 10.5476
lfemur 1.0556 -9.37012 -14.093
ltibia 23.7571
lfoot -16.4009 9.34105
ltoes -5.58245
981
root 9.4063 17.8437 0.856919 -9.02673 37.5129 -8.3365
lowerback 8.45521 1.86308 2.96826
upperback 0.254331 2.57807 -5.17905
thorax -4.11049 1.19428 -7.43795
lowerneck -11.767 -10.8399 -4.68376
upperneck -16.6711 -12.9569 7.11948
head -2.64898 -6.12842 2.85491
rclavicle 1.78906e-014 -6.67916e-014
rhumerus 65.0823 -15.6417 -27.5836
rradius 58.8435
rwrist -14.8879
rhand -41.0588 41.9492
rfingers 7.12502
rthumb -13.9883 12.4398
lclavicle 1.78906e-014 -6.67916e-014
lhumerus -40.567 11.3039 74.2253
lradius 37.9601
lwrist 31.5453
lhand -30.93 15.2665
lfingers 7.12502
lthumb -4.21551 45.2045
rfemur 3.91852 -10.4882 23.0183
rtibia 11.1366
rfoot -12.3986 -27.3054
rtoes 10.1629
lfemur 1.10905 -9.00657 -14.3067
ltibia 23.6906
lfoot -16.4694 9.22003
ltoes -5.9396
982
root 9.41548 17.8436 0.838876 -8.71805 37.1281 -7.90034
lowerback 8.41545 1.83258 2.63585
upperback 0.355774 2.51047 -5.09871
thorax -4.00945 1.17286 -7.145
lowerneck -12.7597 -11.4423 -5.18897
upperneck -15.5835 -13.6698 7.53837
head -2.00863 -6.45902 2.91505
rclavicle -9.57148e-014 1.90833e-014
rhumerus 64.5482 -15.0832 -27.6302
rradius 60.7151
rwrist -14.9069
rhand -40.843 41.8482
rfingers 7.12502
rthumb -13.7803 12.3246
lclavicle -9.57148e-014 1.90833e-014
lhumerus -40.244 11.8382 74.3245
lradius 37.5789
lwrist 30.7947
lhand -30.238 15.2601
lfingers 7.12502
lthumb -3.54729 45.2103
rfemur 3.80001 -10.359 22.6198
rtibia 11.1448
rfoot -12.229 -27.0874
rtoes 10.0179
lfemur 1.12159 -8.77999 -14.7272
ltibia 23.7226
lfoot -16.7702 9.25415
ltoes -5.73013
